<svg width="202" height="159" viewBox="0 0 202 159" fill="none" xmlns="http://www.w3.org/2000/svg">
    <g opacity="0.1">
        <path
            d="M147.363 0.358413C141.341 8.4227 136.122 15.6806 130.502 22.9384C129.297 24.5513 126.487 25.3577 124.079 25.3577C108.824 25.7609 93.5686 25.3577 78.7151 25.3577C49.008 25.7609 25.7241 49.5506 25.7241 78.9852C26.1256 108.42 49.4095 131.806 79.1166 131.806C93.9701 131.806 108.824 131.806 123.677 131.806C127.29 131.806 129.297 132.613 131.305 135.435C136.122 142.693 141.341 149.145 146.56 156.402C146.158 156.806 145.757 157.209 145.355 157.209C121.67 157.209 97.5831 158.015 73.8978 156.806C31.3444 155.193 -1.17282 118.903 0.432969 75.7595C2.03876 35.0348 34.1545 1.97127 74.2992 0.358413C98.386 -0.448016 122.473 0.358413 147.363 0.358413Z"
            fill="#009EE3" />
        <path
            d="M100.794 91.888C100.794 99.9523 100.794 107.21 100.794 114.871C92.3636 114.871 84.3347 114.871 75.9043 114.871C75.9043 91.0815 75.9043 67.6951 75.9043 43.5022C83.9332 43.5022 91.9622 43.5022 100.794 43.5022C100.794 50.7601 100.794 58.4212 100.794 66.4855C107.217 66.4855 113.239 66.8887 118.859 66.4855C120.465 66.4855 122.071 64.4694 123.275 62.8565C137.727 43.5022 151.778 24.148 166.23 4.79366C168.639 1.56795 171.449 0.358307 175.463 0.358307C183.492 0.761521 191.922 0.358307 201.156 0.358307C197.944 4.79366 195.134 8.82581 192.324 12.858C176.667 33.4219 161.412 54.389 145.756 74.953C143.347 77.7755 143.347 79.7915 145.756 83.0173C163.42 106.807 180.682 130.597 198.346 154.386C199.148 155.193 199.55 155.999 200.754 158.015C190.317 158.015 180.28 158.015 170.646 158.015C169.04 158.015 167.434 155.999 166.23 154.386C151.778 135.032 137.727 115.678 123.676 96.3233C121.268 93.0976 119.261 91.888 115.648 92.2912C110.83 91.888 106.013 91.888 100.794 91.888Z"
            fill="#0085CD" />
    </g>
</svg>