<svg width="63" height="51" viewBox="0 0 63 51" fill="none" xmlns="http://www.w3.org/2000/svg">
<path d="M45.774 1.00493C43.898 3.51724 42.2722 5.77833 40.5213 8.03941C40.1461 8.54187 39.2706 8.7931 38.5202 8.7931C33.7678 8.91872 29.0153 8.7931 24.3879 8.7931C15.1331 8.91872 7.87928 16.33 7.87928 25.5C8.00435 34.67 15.2581 41.9557 24.5129 41.9557C29.1404 41.9557 33.7678 41.9557 38.3952 41.9557C39.5208 41.9557 40.1461 42.2069 40.7714 43.0862C42.2722 45.3473 43.898 47.3571 45.5239 49.6182C45.3988 49.7438 45.2738 49.8695 45.1487 49.8695C37.7699 49.8695 30.2659 50.1207 22.8871 49.7438C9.63019 49.2414 -0.500083 37.936 0.000177123 24.4951C0.500438 11.8079 10.5056 1.50739 23.0122 1.00493C30.5161 0.753696 38.02 1.00493 45.774 1.00493Z" fill="#009EE3"/>
<path d="M31.2662 29.5197C31.2662 32.032 31.2662 34.2931 31.2662 36.6798C28.6399 36.6798 26.1386 36.6798 23.5122 36.6798C23.5122 29.2685 23.5122 21.9828 23.5122 14.4458C26.0135 14.4458 28.5148 14.4458 31.2662 14.4458C31.2662 16.7069 31.2662 19.0936 31.2662 21.6059C33.2673 21.6059 35.1433 21.7315 36.8942 21.6059C37.3944 21.6059 37.8947 20.9778 38.2699 20.4754C42.7722 14.4458 47.1495 8.41626 51.6519 2.3867C52.4023 1.38178 53.2777 1.00493 54.5284 1.00493C57.0297 1.13054 59.656 1.00493 62.5325 1.00493C61.532 2.3867 60.6566 3.64286 59.7811 4.89902C54.9036 11.3054 50.1511 17.8374 45.2735 24.2438C44.5232 25.1232 44.5232 25.7512 45.2735 26.7562C50.7764 34.1675 56.1542 41.5788 61.6571 48.9902C61.9072 49.2414 62.0323 49.4926 62.4075 50.1207C59.1558 50.1207 56.0291 50.1207 53.0276 50.1207C52.5273 50.1207 52.0271 49.4926 51.6519 48.9902C47.1495 42.9606 42.7722 36.931 38.395 30.9015C37.6446 29.8966 37.0192 29.5197 35.8937 29.6453C34.3929 29.5197 32.8921 29.5197 31.2662 29.5197Z" fill="#0085CD"/>
</svg>
