<svg>

    <symbol xmlns="http://www.w3.org/2000/svg" viewBox="0 0 63 51" id="logo__img--blue">
        <path fill="#009EE3"
            d="M45.774 1.00493C43.898 3.51724 42.2722 5.77833 40.5213 8.03941C40.1461 8.54187 39.2706 8.7931 38.5202 8.7931C33.7678 8.91872 29.0153 8.7931 24.3879 8.7931C15.1331 8.91872 7.87928 16.33 7.87928 25.5C8.00435 34.67 15.2581 41.9557 24.5129 41.9557C29.1404 41.9557 33.7678 41.9557 38.3952 41.9557C39.5208 41.9557 40.1461 42.2069 40.7714 43.0862C42.2722 45.3473 43.898 47.3571 45.5239 49.6182C45.3988 49.7438 45.2738 49.8695 45.1487 49.8695C37.7699 49.8695 30.2659 50.1207 22.8871 49.7438C9.63019 49.2414 -0.500083 37.936 0.000177123 24.4951C0.500438 11.8079 10.5056 1.50739 23.0122 1.00493C30.5161 0.753696 38.02 1.00493 45.774 1.00493Z" />
        <path fill="#0085CD"
            d="M31.2662 29.5197C31.2662 32.032 31.2662 34.2931 31.2662 36.6798C28.6399 36.6798 26.1386 36.6798 23.5122 36.6798C23.5122 29.2685 23.5122 21.9828 23.5122 14.4458C26.0135 14.4458 28.5148 14.4458 31.2662 14.4458C31.2662 16.7069 31.2662 19.0936 31.2662 21.6059C33.2673 21.6059 35.1433 21.7315 36.8942 21.6059C37.3944 21.6059 37.8947 20.9778 38.2699 20.4754C42.7722 14.4458 47.1495 8.41626 51.6519 2.3867C52.4023 1.38178 53.2777 1.00493 54.5284 1.00493C57.0297 1.13054 59.656 1.00493 62.5325 1.00493C61.532 2.3867 60.6566 3.64286 59.7811 4.89902C54.9036 11.3054 50.1511 17.8374 45.2735 24.2438C44.5232 25.1232 44.5232 25.7512 45.2735 26.7562C50.7764 34.1675 56.1542 41.5788 61.6571 48.9902C61.9072 49.2414 62.0323 49.4926 62.4075 50.1207C59.1558 50.1207 56.0291 50.1207 53.0276 50.1207C52.5273 50.1207 52.0271 49.4926 51.6519 48.9902C47.1495 42.9606 42.7722 36.931 38.395 30.9015C37.6446 29.8966 37.0192 29.5197 35.8937 29.6453C34.3929 29.5197 32.8921 29.5197 31.2662 29.5197Z" />
    </symbol>

    <symbol xmlns="http://www.w3.org/2000/svg" viewBox="0 0 63 51" id="logo__img--white">
        <path fill="#fff"
            d="M45.774 1.00493C43.898 3.51724 42.2722 5.77833 40.5213 8.03941C40.1461 8.54187 39.2706 8.7931 38.5202 8.7931C33.7678 8.91872 29.0153 8.7931 24.3879 8.7931C15.1331 8.91872 7.87928 16.33 7.87928 25.5C8.00435 34.67 15.2581 41.9557 24.5129 41.9557C29.1404 41.9557 33.7678 41.9557 38.3952 41.9557C39.5208 41.9557 40.1461 42.2069 40.7714 43.0862C42.2722 45.3473 43.898 47.3571 45.5239 49.6182C45.3988 49.7438 45.2738 49.8695 45.1487 49.8695C37.7699 49.8695 30.2659 50.1207 22.8871 49.7438C9.63019 49.2414 -0.500083 37.936 0.000177123 24.4951C0.500438 11.8079 10.5056 1.50739 23.0122 1.00493C30.5161 0.753696 38.02 1.00493 45.774 1.00493Z" />
        <path fill="#fff"
            d="M31.2662 29.5197C31.2662 32.032 31.2662 34.2931 31.2662 36.6798C28.6399 36.6798 26.1386 36.6798 23.5122 36.6798C23.5122 29.2685 23.5122 21.9828 23.5122 14.4458C26.0135 14.4458 28.5148 14.4458 31.2662 14.4458C31.2662 16.7069 31.2662 19.0936 31.2662 21.6059C33.2673 21.6059 35.1433 21.7315 36.8942 21.6059C37.3944 21.6059 37.8947 20.9778 38.2699 20.4754C42.7722 14.4458 47.1495 8.41626 51.6519 2.3867C52.4023 1.38178 53.2777 1.00493 54.5284 1.00493C57.0297 1.13054 59.656 1.00493 62.5325 1.00493C61.532 2.3867 60.6566 3.64286 59.7811 4.89902C54.9036 11.3054 50.1511 17.8374 45.2735 24.2438C44.5232 25.1232 44.5232 25.7512 45.2735 26.7562C50.7764 34.1675 56.1542 41.5788 61.6571 48.9902C61.9072 49.2414 62.0323 49.4926 62.4075 50.1207C59.1558 50.1207 56.0291 50.1207 53.0276 50.1207C52.5273 50.1207 52.0271 49.4926 51.6519 48.9902C47.1495 42.9606 42.7722 36.931 38.395 30.9015C37.6446 29.8966 37.0192 29.5197 35.8937 29.6453C34.3929 29.5197 32.8921 29.5197 31.2662 29.5197Z" />
    </symbol>

    <symbol xmlns="http://www.w3.org/2000/svg" viewBox="0 0 168 51" id="logo__text">
        <path
            d="M21.4237 16.4557C19.5477 20.0985 15.7957 22.6108 11.4185 22.6108C5.1652 22.6108 0.162598 17.5862 0.162598 11.3054C0.162598 5.15025 5.1652 0 11.4185 0C15.7957 0 19.5477 2.51232 21.4237 6.15517L17.9218 7.91379C16.7963 5.65271 14.295 4.0197 11.5435 4.0197C7.54144 4.0197 4.28975 7.28571 4.28975 11.3054C4.28975 15.3251 7.54144 18.5911 11.5435 18.5911C14.42 18.5911 16.7963 16.9581 17.9218 14.5714L21.4237 16.4557Z" />
        <path
            d="M24.0498 0.753696H40.6835V4.7734H28.0519V9.29557H37.1816V13.1897H28.0519V17.9631H40.6835V21.8571H24.0498V0.753696Z" />
        <path
            d="M44.0605 0.753696H54.566C57.9428 0.753696 60.8193 3.64286 60.8193 7.03448C60.8193 8.79311 60.0689 10.1749 58.9433 11.0542C60.319 12.0591 61.3195 13.6921 61.3195 15.5764C61.3195 19.0936 58.5681 21.8571 55.0663 21.8571H44.0605V0.753696V0.753696ZM54.4409 9.42118C55.6916 9.42118 56.8172 8.41626 56.8172 7.1601C56.8172 5.77833 55.6916 4.7734 54.4409 4.7734H47.9376V9.42118H54.4409ZM54.9412 17.8374C56.1919 17.8374 57.1924 16.7069 57.1924 15.4507C57.1924 14.069 56.1919 13.064 54.9412 13.064H47.9376V17.8374H54.9412Z" />
        <path
            d="M64.5713 0.753696H81.205V4.7734H68.5734V9.29557H77.7031V13.1897H68.5734V17.9631H81.205V21.8571H64.5713V0.753696Z" />
        <path
            d="M84.4565 0.753696H93.8364C98.4638 0.753696 102.466 4.39655 102.466 8.91872C102.466 13.4409 98.5889 17.0837 93.8364 17.0837H88.4586V21.9828H84.4565V0.753696V0.753696ZM93.8364 13.064C96.4628 13.064 98.4638 11.1798 98.4638 8.79311C98.4638 6.53202 96.3377 4.52217 93.7114 4.52217H88.4586V12.9384H93.8364V13.064Z" />
        <path
            d="M105.217 0.753696H109.219V9.29557H120.1V0.753696H124.102V21.9828H120.1V13.3153H109.219V21.9828H105.217V0.753696Z" />
        <path
            d="M135.483 0.753696H139.36L148.615 21.9828H144.238L143.112 19.3448H131.856L130.731 21.9828H126.354L135.483 0.753696ZM141.361 15.3251L137.359 5.77833L133.357 15.3251H141.361Z" />
        <path
            d="M153.993 15.8276C151.492 14.4458 149.866 11.9335 149.866 8.91872C149.866 4.39655 153.868 0.753696 158.495 0.753696H167.875V21.9828H163.873V17.0837H158.12L154.743 21.9828H149.866L153.993 15.8276ZM163.998 13.064V4.64779H158.62C155.994 4.64779 153.868 6.53202 153.868 8.91872C153.868 11.1798 155.869 13.1897 158.495 13.1897H163.998V13.064Z" />
        <path
            d="M1.28809 29.0172H5.29017V37.6847H9.41732L15.2954 29.1429H20.1729L12.7941 39.6946L20.1729 50.2463H15.2954L9.41732 41.7044H5.29017V50.2463H1.28809V29.0172V29.0172Z" />
        <path
            d="M30.4286 29.0172H34.3056L43.5604 50.2463H39.1831L38.0576 47.6084H26.8017L25.6761 50.2463H21.2988L30.4286 29.0172ZM36.3066 43.7143L32.3046 34.1675L28.3025 43.7143H36.3066Z" />
        <path
            d="M46.6868 43.9655C49.3132 46.3522 51.8145 46.9803 53.4404 46.9803C56.0667 46.9803 57.9427 45.5985 57.9427 43.9655C57.9427 42.835 56.9422 41.4532 53.9406 41.4532H49.1882V37.6847H53.9406C56.567 37.6847 57.5675 36.303 57.5675 35.298C57.5675 33.9163 56.0667 32.5345 53.3153 32.5345C51.6894 32.5345 49.4383 33.1626 47.1871 34.9212L44.8109 31.9064C47.9375 29.2685 50.9391 28.5148 53.3153 28.5148C58.568 28.5148 61.6947 32.1576 61.6947 35.4236C61.6947 36.931 60.9443 38.4384 59.4435 39.569C61.1944 40.6995 62.0699 42.4581 62.0699 44.0911C62.0699 47.734 58.443 51.1256 53.3153 51.1256C50.9391 51.1256 47.5623 50.2463 44.1855 47.2315L46.6868 43.9655Z" />
        <path
            d="M65.3218 29.0172H69.3239V37.6847H80.2045V29.1429H84.2066V50.2463H80.2045V41.5788H69.3239V50.2463H65.3218V29.0172Z" />
        <path
            d="M95.4623 29.0172H99.3393L108.594 50.2463H104.217L103.091 47.6084H91.8354L90.7098 50.2463H86.3325L95.4623 29.0172ZM101.34 43.7143L97.3382 34.1675L93.3362 43.7143H101.34Z" />
    </symbol>

    <symbol xmlns="http://www.w3.org/2000/svg" viewBox="0 0 22 22" id="whatsapp">
        <path
            d="M0.0722656 22C0.539056 20.3549 0.934028 18.9065 1.36491 17.4581C1.54445 16.8859 1.50854 16.4209 1.23924 15.8666C-1.63331 9.9478 1.75989 2.8488 8.16928 1.27522C14.83 -0.352002 21.1676 4.72637 21.0419 11.5571C20.9162 17.619 15.9431 22.2325 9.8928 21.8033C8.63606 21.7139 7.43318 21.1596 6.1944 20.8556C5.81737 20.7662 5.38649 20.6589 5.00947 20.7483C3.42956 21.1059 1.84966 21.5351 0.0722656 22ZM2.58575 19.2999C2.65756 19.3356 2.74733 19.3714 2.81914 19.4072C3.59114 19.2105 4.34519 18.9422 5.11719 18.835C5.60193 18.7634 6.19439 18.7813 6.60732 18.9959C12.3345 22.0179 19.2466 17.8872 19.1927 11.3962C19.1747 7.74836 17.4153 5.04824 14.1119 3.56407C11.0059 2.1693 7.93588 2.5627 5.29672 4.72637C2.42417 7.08674 1.38287 10.2339 2.49598 13.7566C3.07049 15.652 3.80659 17.3687 2.58575 19.2999Z" />
        <path
            d="M5.27783 9.10743C5.34965 7.62325 6.21141 6.55036 7.34248 6.65765C7.46815 6.67553 7.59383 6.65765 7.70155 6.69341C8.36583 6.9974 8.9942 9.5187 8.47355 10.0194C7.97085 10.5201 7.9888 10.9671 8.45559 11.3784C9.35326 12.2009 10.2689 12.9877 11.2025 13.7388C11.7052 14.15 12.2258 14.0249 12.531 13.4348C12.9619 12.5943 13.5544 12.5586 14.2905 13.0414C14.5059 13.1844 14.7752 13.2917 15.0086 13.399C16.0499 13.9176 16.1935 14.7759 15.3318 15.5984C14.5239 16.3852 13.5185 16.5462 12.4951 16.2779C9.28145 15.4375 7.10908 13.3275 5.61895 10.4485C5.43941 10.0552 5.40351 9.55447 5.27783 9.10743Z" />
    </symbol>

    <symbol xmlns="http://www.w3.org/2000/svg" viewBox="0 0 443 120" id="footer_logo">
        <path
            d="M81.4354 1.71857C77.9958 6.30091 75.416 10.3105 72.2629 14.0336C71.6897 15.1792 69.9698 15.752 68.8232 15.752C60.5107 15.752 51.9114 15.752 43.5989 15.752C26.9737 16.0384 14.0749 29.2126 14.0749 45.2508C14.3615 61.5754 27.2603 74.4632 43.8855 74.4632C52.1981 74.4632 60.224 74.4632 68.5366 74.4632C70.5431 74.4632 71.6897 75.036 72.8362 76.468C75.416 80.4775 78.569 84.2007 81.4354 87.9238C81.1488 88.2102 80.8622 88.2102 80.5755 88.2102C67.3901 88.2102 54.2046 88.783 41.0191 87.9238C17.2279 87.351 -0.83045 67.3033 0.0294722 43.5324C0.889394 20.9071 18.6611 2.86416 41.0191 2.00497C54.4912 1.43218 67.6767 1.71857 81.4354 1.71857Z" />
        <path
            d="M55.6377 52.1243C55.6377 56.7066 55.6377 60.4297 55.6377 64.7257C51.0514 64.7257 46.4652 64.7257 41.5923 64.7257C41.5923 51.5515 41.5923 38.6636 41.5923 25.4894C46.1785 25.4894 50.4781 25.4894 55.351 25.4894C55.351 29.499 55.351 33.7949 55.351 38.0908C59.0774 38.0908 62.2304 38.0908 65.3835 38.0908C66.2434 38.0908 67.1033 36.9453 67.9632 36.0861C75.9892 25.4894 84.0151 14.8927 91.7544 4.00969C93.1876 2.00492 94.6208 1.43213 96.9139 1.43213C101.5 1.71853 106.086 1.43213 111.246 1.43213C109.526 4.00969 107.806 6.01447 106.373 8.30564C97.7739 19.7615 89.4613 31.2173 80.8621 42.6732C79.7155 44.3916 79.4289 45.2507 80.8621 46.9691C90.6079 60.1433 100.354 73.3176 110.099 86.2054C110.386 86.7782 110.673 87.0646 111.533 88.2102C105.8 88.2102 100.354 88.2102 94.9075 88.2102C94.0475 88.2102 93.1876 87.0646 92.6143 86.2054C84.5884 75.6087 76.5625 65.0121 68.8232 54.129C67.6766 52.4106 66.2434 51.8379 64.2369 51.8379C61.3705 52.4106 58.7907 52.1243 55.6377 52.1243Z" />
        <path
            d="M166.568 29.2124C163.128 35.5131 156.535 40.0955 148.796 40.0955C137.617 40.0955 128.731 31.2172 128.731 20.0477C128.731 9.16468 137.617 0 148.796 0C156.535 0 163.414 4.29594 166.568 10.8831L160.261 14.0334C158.255 10.0239 153.955 7.1599 148.796 7.1599C141.63 7.1599 135.897 12.8878 135.897 20.0477C135.897 27.2076 141.63 32.9356 148.796 32.9356C153.955 32.9356 157.968 30.0716 160.261 25.7757L166.568 29.2124Z" />
        <path
            d="M171.154 1.14551H200.678V8.30541H178.033V16.3245H194.372V23.198H178.033V31.5035H200.678V38.377H171.154V1.14551Z" />
        <path
            d="M206.697 1.14551H225.616C231.635 1.14551 236.795 6.30064 236.795 12.315C236.795 15.4653 235.648 17.7565 233.641 19.4749C236.221 21.1932 237.941 24.0572 237.941 27.494C237.941 33.7947 233.068 38.6634 226.762 38.6634H206.984V1.14551H206.697ZM225.329 16.6109C227.622 16.6109 229.629 14.8925 229.629 12.6014C229.629 10.3102 227.622 8.30541 225.329 8.30541H213.863V16.6109H225.329ZM226.475 31.7899C228.769 31.7899 230.488 29.7851 230.488 27.494C230.488 25.2028 228.769 23.198 226.475 23.198H213.863V31.5035H226.475V31.7899Z" />
        <path
            d="M243.387 1.14551H272.911V8.30541H250.267V16.3245H266.605V23.198H250.267V31.5035H272.911V38.377H243.387V1.14551Z" />
        <path
            d="M278.931 1.14551H295.556C303.868 1.14551 311.034 7.44622 311.034 15.4653C311.034 23.4844 304.155 29.7851 295.556 29.7851H285.81V38.377H278.644V1.14551H278.931ZM295.556 23.198C300.142 23.198 303.868 19.7613 303.868 15.7517C303.868 11.7422 300.142 8.30541 295.556 8.30541H286.097V23.198H295.556Z" />
        <path
            d="M315.907 1.14551H323.073V16.3245H342.565V1.14551H349.731V38.6634H342.565V23.4844H323.073V38.9498H315.907V1.14551Z" />
        <path
            d="M369.796 1.14551H376.675L393.014 38.6634H385.275L383.268 33.7947H363.203L361.197 38.6634H353.458L369.796 1.14551ZM380.402 27.2076L373.236 10.3102L366.07 27.2076H380.402Z" />
        <path
            d="M403.046 28.067C398.46 25.4894 395.593 20.9071 395.593 15.7519C395.593 7.73284 402.759 1.43213 411.072 1.43213H427.984V38.95H420.818V30.3581H410.212L404.192 38.95H395.593L403.046 28.067ZM420.531 23.1982V8.30564H411.072C406.486 8.30564 402.759 11.7424 402.759 15.7519C402.759 19.7615 406.486 23.1982 411.072 23.1982H420.531Z" />
        <path
            d="M130.737 51.5513H137.903V66.7303H145.356L155.962 51.5513H164.561L151.375 70.167L164.561 89.0692H155.962L145.356 73.8902H137.903V89.0692H130.737V51.5513Z" />
        <path
            d="M182.619 51.5513H189.499L205.837 89.0692H198.098L196.091 84.2004H176.027L174.02 89.0692H166.281L182.619 51.5513ZM193.225 77.6133L186.059 60.7159L178.893 77.6133H193.225Z" />
        <path
            d="M211.57 78.1862C216.443 82.4821 220.743 83.3413 223.609 83.3413C228.482 83.3413 231.635 80.7638 231.635 77.8998C231.635 75.895 229.915 73.6039 224.469 73.6039H215.87V66.7303H224.182C228.769 66.7303 230.775 64.4392 230.775 62.4344C230.775 60.1432 228.195 57.5657 223.036 57.5657C220.169 57.5657 216.156 58.7113 212.143 61.8616L207.844 56.4201C213.29 51.8377 218.736 50.4058 223.036 50.4058C232.495 50.4058 237.941 56.7065 237.941 62.7208C237.941 65.5848 236.508 68.1623 233.928 70.1671C237.081 72.1719 238.514 75.3222 238.514 78.1862C238.514 84.7733 232.208 90.5012 223.036 90.5012C218.736 90.5012 212.717 89.0692 206.697 83.6277L211.57 78.1862Z" />
        <path
            d="M244.82 51.5513H251.986V66.7303H271.478V51.5513H278.644V89.0692H271.478V73.6038H251.986V89.0692H244.82V51.5513Z" />
        <path
            d="M298.422 51.5513H305.302L321.64 89.0692H313.901L311.895 84.2004H291.83L289.823 89.0692H282.084L298.422 51.5513ZM309.028 77.6133L301.862 60.7159L294.696 77.6133H309.028Z" />
        <path
            d="M10.9215 117.136H9.48832L2.89559 110.262V117.422H1.74902V103.961H2.89559V110.549L9.48832 103.961H10.9215L4.32879 110.549L10.9215 117.136Z" />
        <path
            d="M21.5274 107.685C21.5274 108.83 21.2408 109.689 20.3808 110.262C19.5209 110.835 18.661 111.408 17.2278 111.408H14.648V117.422H13.5015V103.961H17.2278C18.661 103.961 19.8076 104.248 20.3808 105.107C21.2408 105.393 21.5274 106.253 21.5274 107.685ZM20.3808 107.398C20.3808 105.68 19.2343 104.534 17.2278 104.534H14.648V109.976H16.9412C19.2343 110.262 20.3808 109.403 20.3808 107.398Z" />
        <path
            d="M31.8462 117.136H24.6802V103.675H31.8462V104.821H25.8267V109.403H31.5596V110.549H25.8267V116.563H31.8462V117.136Z" />
        <path
            d="M46.1786 120H45.032V117.422H35.2862V120H34.1396V116.277C35.5729 116.277 36.4328 115.131 36.4328 112.554V103.675H44.7454V116.277H46.1786V120ZM43.3122 116.277V104.821H37.2927V112.84C37.2927 114.272 37.0061 115.418 36.1461 116.277H43.3122Z" />
        <path d="M59.364 117.136H58.2174V105.967L48.7583 117.422V103.389H49.9049V114.558L59.364 103.103V117.136Z" />
        <path d="M71.1159 104.821H67.1029V117.422H65.9563V104.821H61.9434V103.675H70.8292V104.821H71.1159Z" />
        <path
            d="M84.3015 117.136H83.1549V110.262H75.129V117.136H73.9824V103.675H75.129V109.117H83.1549V103.675H84.3015V117.136Z" />
        <path
            d="M96.3404 113.126C96.3404 114.272 96.0538 115.418 95.1938 115.99C94.3339 116.85 93.1873 117.136 91.7541 117.136H88.3145V103.675H89.461V109.117H91.7541C93.1873 109.117 94.3339 109.403 95.1938 110.262C95.7671 110.835 96.3404 111.981 96.3404 113.126ZM95.1938 113.126C95.1938 111.122 94.0473 110.262 91.7541 110.262H89.461V116.277H91.7541C94.0473 116.277 95.1938 115.131 95.1938 113.126ZM98.9202 117.136H97.7736V103.675H98.9202V117.136Z" />
        <path
            d="M113.539 117.136H112.392V105.966L102.933 117.422V103.389H104.08V114.272L113.539 102.816V117.136ZM111.246 100.525C111.246 101.384 110.959 101.957 110.386 102.243C109.812 102.816 108.953 103.102 108.093 103.102C107.233 103.102 106.373 102.816 106.086 102.243C105.513 101.67 105.226 101.098 105.226 100.525H106.373C106.373 101.098 106.659 101.384 106.946 101.67C107.233 101.957 107.806 102.243 108.379 102.243C108.953 102.243 109.526 101.957 109.812 101.67C110.099 101.384 110.386 101.098 110.386 100.525H111.246Z" />
        <path d="M132.171 117.136H131.024V104.534H123.285V117.136H122.138V103.675H132.457V117.136H132.171Z" />
        <path
            d="M150.229 110.549C150.229 112.553 149.656 114.272 148.223 115.704C146.789 117.136 145.069 117.708 143.063 117.708C141.057 117.708 139.337 117.136 137.903 115.704C136.47 114.272 135.897 112.553 135.897 110.549C135.897 108.544 136.47 106.825 137.903 105.393C139.337 103.961 141.057 103.389 143.063 103.389C145.069 103.389 146.789 103.961 148.223 105.393C149.369 106.539 150.229 108.257 150.229 110.549ZM149.082 110.549C149.082 108.83 148.509 107.398 147.363 106.253C146.216 105.107 144.783 104.534 143.063 104.534C141.343 104.534 139.91 105.107 138.763 106.253C137.617 107.398 137.044 108.83 137.044 110.549C137.044 112.267 137.617 113.699 138.763 114.845C139.91 115.99 141.343 116.563 143.063 116.563C144.783 116.563 146.216 115.99 147.363 114.845C148.509 113.699 149.082 112.267 149.082 110.549Z" />
        <path d="M160.548 104.821H156.535V117.422H155.388V104.821H151.375V103.675H160.548V104.821Z" />
        <path
            d="M171.154 107.685C171.154 108.83 170.867 109.689 170.007 110.262C169.147 110.835 168.287 111.408 166.854 111.408H164.274V117.422H163.128V103.961H166.854C168.287 103.961 169.434 104.248 170.007 105.107C170.867 105.393 171.154 106.253 171.154 107.685ZM170.007 107.398C170.007 105.68 168.861 104.534 166.854 104.534H164.561V109.976H166.854C168.861 110.262 170.007 109.403 170.007 107.398Z" />
        <path
            d="M181.473 117.136H174.307V103.675H181.473V104.821H175.453V109.403H181.186V110.549H175.453V116.563H181.473V117.136Z" />
        <path
            d="M192.939 113.126C192.939 114.272 192.652 115.418 191.792 115.99C190.932 116.85 189.785 117.136 188.352 117.136H184.913V103.675H192.079V104.821H186.059V109.117H188.352C189.785 109.117 190.932 109.403 191.792 110.262C192.365 110.835 192.939 111.981 192.939 113.126ZM191.505 113.126C191.505 111.122 190.359 110.262 188.066 110.262H185.773V116.277H188.066C190.359 116.277 191.505 115.131 191.505 113.126Z" />
        <path d="M206.41 117.136H205.264V105.967L195.805 117.422V103.389H196.951V114.558L206.41 103.103V117.136Z" />
        <path d="M218.163 104.821H214.15V117.422H213.003V104.821H209.277V103.675H218.163V104.821Z" />
        <path
            d="M228.195 117.136H221.029V103.675H228.195V104.821H222.176V109.403H227.909V110.549H222.176V116.563H228.195V117.136Z" />
        <path
            d="M241.094 117.136H239.947V104.534H234.501V112.267C234.501 113.985 234.215 115.417 233.928 115.99C233.641 116.563 232.781 117.136 231.635 117.136C231.348 117.136 231.062 117.136 230.488 117.136V115.99C230.775 115.99 231.062 115.99 231.348 115.99C231.921 115.99 232.495 115.704 232.781 115.131C233.068 114.558 233.068 113.699 233.068 112.267V103.389H240.807V117.136H241.094Z" />
        <path
            d="M253.42 113.126C253.42 114.272 253.133 115.418 252.273 115.99C251.413 116.85 250.266 117.136 248.833 117.136H245.394V103.675H246.54V109.117H248.833C250.266 109.117 251.413 109.403 252.273 110.262C252.846 110.835 253.42 111.981 253.42 113.126ZM251.986 113.126C251.986 111.122 250.84 110.262 248.547 110.262H246.253V116.277H248.547C250.84 116.277 251.986 115.131 251.986 113.126Z" />
        <path
            d="M267.752 115.99C267.178 116.277 266.605 116.849 265.745 117.136C264.885 117.422 263.739 117.708 262.879 117.708C260.872 117.708 259.153 117.136 258.006 115.704C256.859 114.272 256 112.553 256 110.549C256 108.544 256.573 106.825 258.006 105.393C259.439 103.961 260.872 103.389 262.879 103.389C264.885 103.389 266.605 103.961 267.752 105.107V106.539C266.319 105.107 264.885 104.534 262.879 104.534C261.446 104.534 260.012 105.107 258.866 106.253C257.719 107.398 257.146 108.83 257.146 110.549C257.146 112.267 257.719 113.699 258.866 114.845C260.012 115.99 261.446 116.563 262.879 116.563C263.739 116.563 264.599 116.277 265.745 115.99C266.605 115.704 267.178 115.131 268.038 114.558V115.99H267.752Z" />
        <path
            d="M280.077 117.136H278.644L272.051 109.976V117.136H270.905V103.675H272.051V110.262L278.644 103.675H280.077L273.485 110.262L280.077 117.136Z" />
        <path d="M293.262 117.136H292.116V105.967L282.657 117.422V103.389H283.803V114.558L293.262 103.103V117.136Z" />
        <path
            d="M307.881 117.136H306.735V105.966L297.275 117.422V103.389H298.422V114.272L307.881 102.816V117.136ZM305.588 100.525C305.588 101.384 305.301 101.957 304.728 102.243C304.155 102.816 303.581 103.102 302.435 103.102C301.575 103.102 300.715 102.816 300.428 102.243C299.855 101.67 299.569 101.098 299.569 100.525H300.715C300.715 101.098 301.002 101.384 301.288 101.67C301.575 101.957 302.148 102.243 302.722 102.243C303.295 102.243 303.868 101.957 304.155 101.67C304.441 101.384 304.728 101.098 304.728 100.525H305.588Z" />
        <path
            d="M325.94 117.136H324.506L317.914 109.976V117.136H316.767V103.675H317.914V110.262L324.506 103.675H325.94L319.347 110.262L325.94 117.136Z" />
        <path
            d="M341.132 110.549C341.132 112.553 340.559 114.272 339.125 115.704C337.692 117.136 335.972 117.708 333.966 117.708C331.959 117.708 330.239 117.136 328.806 115.704C327.373 114.272 326.8 112.553 326.8 110.549C326.8 108.544 327.373 106.825 328.806 105.393C330.239 103.961 331.959 103.389 333.966 103.389C335.972 103.389 337.692 103.961 339.125 105.393C340.559 106.539 341.132 108.257 341.132 110.549ZM339.985 110.549C339.985 108.83 339.412 107.398 338.265 106.253C337.119 105.107 335.686 104.534 333.966 104.534C332.246 104.534 330.813 105.107 329.666 106.253C328.52 107.398 327.946 108.83 327.946 110.549C327.946 112.267 328.52 113.699 329.666 114.845C330.813 115.99 332.246 116.563 333.966 116.563C335.686 116.563 337.119 115.99 338.265 114.845C339.412 113.699 339.985 112.267 339.985 110.549Z" />
        <path
            d="M358.617 110.549C358.617 112.553 358.043 114.272 356.61 115.704C355.177 117.136 353.457 117.708 351.451 117.708C349.444 117.708 347.724 117.136 346.291 115.704C344.858 114.272 344.285 112.553 344.285 110.549C344.285 108.544 344.858 106.825 346.291 105.393C347.724 103.961 349.444 103.389 351.451 103.389C353.457 103.389 355.177 103.961 356.61 105.393C357.757 106.539 358.617 108.257 358.617 110.549ZM357.184 110.549C357.184 108.83 356.61 107.398 355.464 106.253C354.317 105.107 352.884 104.534 351.164 104.534C349.444 104.534 348.011 105.107 346.864 106.253C345.718 107.398 345.145 108.83 345.145 110.549C345.145 112.267 345.718 113.699 346.864 114.845C348.011 115.99 349.444 116.563 351.164 116.563C352.884 116.563 354.317 115.99 355.464 114.845C356.61 113.699 357.184 112.267 357.184 110.549Z" />
        <path d="M372.089 117.136H370.942V104.534H363.203V117.136H362.057V103.675H372.376V117.136H372.089Z" />
        <path
            d="M383.268 117.136H376.102V103.675H383.268V104.821H377.248V109.403H382.981V110.549H377.248V116.563H383.268V117.136Z" />
        <path
            d="M394.447 107.685C394.447 108.83 394.16 109.689 393.3 110.262C392.44 110.835 391.58 111.408 390.147 111.408H387.567V117.422H386.421V103.961H390.147C391.58 103.961 392.727 104.248 393.3 105.107C394.16 105.393 394.447 106.253 394.447 107.685ZM393.3 107.398C393.3 105.68 392.154 104.534 390.147 104.534H387.854V109.976H390.147C392.154 110.262 393.3 109.403 393.3 107.398Z" />
        <path
            d="M407.346 117.136H406.199L404.479 113.126H397.886L396.167 117.136H395.02L401.326 103.103L407.346 117.136ZM403.906 111.981L401.039 105.68L398.173 111.981H403.906Z" />
        <path d="M416.232 104.821H412.219V117.422H411.072V104.821H407.059V103.675H415.945V104.821H416.232Z" />
        <path d="M429.703 117.136H428.557V105.967L419.098 117.422V103.389H420.244V114.558L429.703 103.103V117.136Z" />
        <path
            d="M442.029 113.413C442.029 114.558 441.456 115.704 440.596 116.277C439.736 116.85 438.589 117.136 437.156 117.136H433.43V103.675H436.296C439.163 103.675 440.596 104.821 440.596 106.826C440.596 107.398 440.309 108.258 440.022 108.83C439.736 109.403 439.163 109.69 438.589 109.976C440.882 110.262 442.029 111.408 442.029 113.413ZM439.736 107.112C439.736 106.539 439.449 105.966 439.163 105.68C438.589 105.107 438.016 104.821 436.869 104.821H434.863V109.69H436.869C438.016 109.69 438.589 109.403 439.163 109.117C439.449 108.544 439.736 107.971 439.736 107.112ZM440.596 113.413C440.596 111.408 439.449 110.549 437.156 110.549H434.863V116.277H437.443C439.449 116.277 440.596 115.418 440.596 113.413Z" />

    </symbol>


    <symbol viewBox="0 0 22 22" xmlns="http://www.w3.org/2000/svg" id="phone">
        <path
            d="M10.895 19.6232L1.79588 10.4933C-0.598626 8.09069 -0.598626 4.72706 1.79588 2.32446L3.71148 0.402382C4.19038 -0.0781377 5.14818 -0.0781377 5.62708 0.402382L8.50049 3.2855C9.93719 4.24654 9.45829 5.20758 8.97939 5.6881L7.06379 6.16862C6.58489 6.16862 6.58489 7.12965 7.06379 7.61017L14.2473 14.818C14.7262 15.2985 15.2051 14.818 15.2051 14.3374L15.684 12.8959C16.1629 11.9348 17.5996 11.9348 18.0785 12.4154L20.9519 15.2985C21.4308 15.779 21.4308 16.74 20.9519 17.2206L19.0363 19.6232C16.6418 22.0258 13.2895 22.0258 10.895 19.6232Z" />
    </symbol>

    <symbol viewBox="0 0 18 23" xmlns="http://www.w3.org/2000/svg" id="map-marker">
        <path
            d="M17.5152 9.2985C17.5152 4.01278 12.7262 -0.311895 6.97939 0.649144C3.62709 1.12966 0.753681 4.01278 0.274781 7.37642C-0.20412 10.2595 0.274781 12.6621 2.19038 14.5842L7.45829 22.2725C8.41609 23.2336 9.8528 23.2336 10.3317 22.2725L15.5996 14.5842C17.0363 13.1426 17.5152 11.2206 17.5152 9.2985ZM8.895 12.6621C6.97939 12.6621 5.54269 11.2206 5.54269 9.2985C5.54269 7.37642 6.97939 5.93486 8.895 5.93486C10.8106 5.93486 12.2473 7.37642 12.2473 9.2985C12.2473 11.2206 10.8106 12.6621 8.895 12.6621Z" />
    </symbol>


</svg>